<svg xmlns="http://www.w3.org/2000/svg" width="1285" height="1341" viewBox="0 0 1285 1341" font-family="DejaVu Sans, Arial, sans-serif" font-size="11">
<defs><marker id="open" markerWidth="12" markerHeight="12" refX="11" refY="6" orient="auto"><path d="M0,0 L11,6 L0,12" fill="none" stroke="#333"/></marker><marker id="tri" markerWidth="16" markerHeight="16" refX="15" refY="8" orient="auto"><path d="M0,0 L15,8 L0,16 Z" fill="#fff" stroke="#333"/></marker><marker id="dia" markerWidth="20" markerHeight="12" refX="1" refY="6" orient="auto"><path d="M1,6 L10,1 L19,6 L10,11 Z" fill="#333" stroke="#333"/></marker><marker id="odia" markerWidth="20" markerHeight="12" refX="1" refY="6" orient="auto"><path d="M1,6 L10,1 L19,6 L10,11 Z" fill="#fff" stroke="#333"/></marker></defs>
<rect width="1285" height="1341" fill="#fff"/>
<rect x="1" y="1" width="1283" height="1339" fill="none" stroke="#333" stroke-width="1.3"/>
<path d="M1,1 L111.8,1 L111.8,15 L101.8,25 L1,25 Z" fill="#fff" stroke="#333" stroke-width="1.3"/>
<text x="8" y="18" font-size="12"><tspan font-weight="bold">class</tspan> Network</text>
<polyline points="258,92 414,92" fill="none" stroke="#333" marker-start="url(#odia)"/>
<text x="272" y="105" fill="#222" font-size="9.5" text-anchor="start">region</text>
<text x="272" y="87" fill="#000" font-size="9.5" text-anchor="start">1</text>
<text x="400" y="87" fill="#222" font-size="9.5" text-anchor="end">serviceAreas</text>
<text x="400" y="105" fill="#000" font-size="9.5" text-anchor="end">0..*</text>
<polyline points="211,270 211,179 414,179" fill="none" stroke="#333"/>
<text x="217" y="260" fill="#222" font-size="9.5" text-anchor="start">primaryHub</text>
<text x="205" y="260" fill="#000" font-size="9.5" text-anchor="end">1</text>
<text x="400" y="174" fill="#222" font-size="9.5" text-anchor="end">servedAreas</text>
<text x="400" y="192" fill="#000" font-size="9.5" text-anchor="end">0..*</text>
<polyline points="711,92 861,92" fill="none" stroke="#333" marker-start="url(#dia)"/>
<text x="725" y="105" fill="#222" font-size="9.5" text-anchor="start">serviceArea</text>
<text x="725" y="87" fill="#000" font-size="9.5" text-anchor="start">1</text>
<text x="847" y="87" fill="#222" font-size="9.5" text-anchor="end">coverages</text>
<text x="847" y="105" fill="#000" font-size="9.5" text-anchor="end">1..*</text>
<polyline points="245,300 285,300 285,240 195,240 195,270" fill="none" stroke="#333"/>
<text x="259" y="313" fill="#222" font-size="9.5" text-anchor="start">parentHub</text>
<text x="259" y="295" fill="#000" font-size="9.5" text-anchor="start">0..1</text>
<text x="201" y="238" fill="#222" font-size="9.5" text-anchor="start">childHubs</text>
<text x="189" y="238" fill="#000" font-size="9.5" text-anchor="end">0..*</text>
<polyline points="245,354 414,354" fill="none" stroke="#333"/>
<text x="259" y="367" fill="#222" font-size="9.5" text-anchor="start">fromHub</text>
<text x="259" y="349" fill="#000" font-size="9.5" text-anchor="start">1</text>
<text x="400" y="349" fill="#222" font-size="9.5" text-anchor="end">outboundLanes</text>
<text x="400" y="367" fill="#000" font-size="9.5" text-anchor="end">0..*</text>
<polyline points="245,388 414,388" fill="none" stroke="#333"/>
<text x="259" y="401" fill="#222" font-size="9.5" text-anchor="start">toHub</text>
<text x="259" y="383" fill="#000" font-size="9.5" text-anchor="start">1</text>
<text x="400" y="383" fill="#222" font-size="9.5" text-anchor="end">inboundLanes</text>
<text x="400" y="401" fill="#000" font-size="9.5" text-anchor="end">0..*</text>
<polyline points="685,354 861,354" fill="none" stroke="#333" marker-start="url(#dia)"/>
<text x="699" y="367" fill="#222" font-size="9.5" text-anchor="start">lane</text>
<text x="699" y="349" fill="#000" font-size="9.5" text-anchor="start">1</text>
<text x="847" y="349" fill="#222" font-size="9.5" text-anchor="end">schedules</text>
<text x="847" y="367" fill="#000" font-size="9.5" text-anchor="end">0..*</text>
<polyline points="142,561 142,651" fill="none" stroke="#333"/>
<text x="136" y="579" fill="#222" font-size="9.5" text-anchor="end">originHub</text>
<text x="148" y="579" fill="#000" font-size="9.5" text-anchor="start">1</text>
<text x="148" y="641" fill="#222" font-size="9.5" text-anchor="start">originRoutes</text>
<text x="136" y="641" fill="#000" font-size="9.5" text-anchor="end">0..*</text>
<polyline points="176,561 176,651" fill="none" stroke="#333"/>
<text x="170" y="601" fill="#222" font-size="9.5" text-anchor="end">destinationHub</text>
<text x="182" y="601" fill="#000" font-size="9.5" text-anchor="start">1</text>
<text x="182" y="619" fill="#222" font-size="9.5" text-anchor="start">destinationRoutes</text>
<text x="170" y="619" fill="#000" font-size="9.5" text-anchor="end">0..*</text>
<polyline points="264,693 414,693" fill="none" stroke="#333" marker-start="url(#dia)"/>
<text x="278" y="706" fill="#222" font-size="9.5" text-anchor="start">routeTemplate</text>
<text x="278" y="688" fill="#000" font-size="9.5" text-anchor="start">1</text>
<text x="400" y="688" fill="#222" font-size="9.5" text-anchor="end">legs {ordered}</text>
<text x="400" y="706" fill="#000" font-size="9.5" text-anchor="end">1..*</text>
<polyline points="489,552 489,642" fill="none" stroke="#333"/>
<text x="483" y="570" fill="#222" font-size="9.5" text-anchor="end">lane</text>
<text x="495" y="570" fill="#000" font-size="9.5" text-anchor="start">1</text>
<text x="495" y="632" fill="#222" font-size="9.5" text-anchor="start">usedInLegs</text>
<text x="483" y="632" fill="#000" font-size="9.5" text-anchor="end">0..*</text>
<polyline points="685,512 1003,512 1003,600" fill="none" stroke="#333"/>
<text x="699" y="525" fill="#222" font-size="9.5" text-anchor="start">lane</text>
<text x="699" y="507" fill="#000" font-size="9.5" text-anchor="start">1</text>
<text x="1009" y="590" fill="#222" font-size="9.5" text-anchor="start">reservations</text>
<text x="997" y="590" fill="#000" font-size="9.5" text-anchor="end">0..*</text>
<polyline points="1003,510 1003,600" fill="none" stroke="#333"/>
<text x="997" y="528" fill="#222" font-size="9.5" text-anchor="end">schedule</text>
<text x="1009" y="528" fill="#000" font-size="9.5" text-anchor="start">1</text>
<text x="1009" y="568" fill="#222" font-size="9.5" text-anchor="start">reservations</text>
<text x="997" y="568" fill="#000" font-size="9.5" text-anchor="end">0..*</text>
<polyline points="264,843 576,843 576,831 861,831" fill="none" stroke="#333"/>
<text x="278" y="856" fill="#222" font-size="9.5" text-anchor="start">routeTemplate</text>
<text x="278" y="838" fill="#000" font-size="9.5" text-anchor="start">0..1</text>
<text x="847" y="826" fill="#222" font-size="9.5" text-anchor="end">reservations</text>
<text x="847" y="844" fill="#000" font-size="9.5" text-anchor="end">0..*</text>
<rect x="40" y="50" width="218" height="130" fill="#e3f2fd" stroke="#333"/>
<line x1="40" y1="96" x2="258" y2="96" stroke="#333"/>
<text x="149.0" y="68" text-anchor="middle">«aggregate root»</text>
<text x="149.0" y="85" text-anchor="middle" font-weight="bold">NetworkRegion</text>
<text x="48" y="114">-id : UUID</text>
<text x="48" y="131">-code : String</text>
<text x="48" y="148">-name : String</text>
<text x="48" y="165">-status : NetworkRegionStatus</text>
<rect x="40" y="270" width="205" height="291" fill="#e3f2fd" stroke="#333"/>
<line x1="40" y1="316" x2="245" y2="316" stroke="#333"/>
<line x1="40" y1="502" x2="245" y2="502" stroke="#333"/>
<text x="48" y="516">+activate()</text>
<text x="48" y="533">+deactivate()</text>
<text x="48" y="550">+close()</text>
<text x="142.5" y="288" text-anchor="middle">«aggregate root»</text>
<text x="142.5" y="305" text-anchor="middle" font-weight="bold">Hub</text>
<text x="48" y="334">-id : UUID</text>
<text x="48" y="351">-code : String</text>
<text x="48" y="368">-name : String</text>
<text x="48" y="385">-type : HubType</text>
<text x="48" y="402">-status : HubStatus</text>
<text x="48" y="419">-addressLine : String</text>
<text x="48" y="436">-provinceCode : String</text>
<text x="48" y="453">-wardCode : String</text>
<text x="48" y="470">-publicVisible : Boolean</text>
<text x="48" y="487">-publicName : String [0..1]</text>
<rect x="40" y="651" width="224" height="240" fill="#e3f2fd" stroke="#333"/>
<line x1="40" y1="697" x2="264" y2="697" stroke="#333"/>
<line x1="40" y1="832" x2="264" y2="832" stroke="#333"/>
<text x="48" y="846">+activate()</text>
<text x="48" y="863">+archive()</text>
<text x="48" y="880">+newRevision() : RouteTemplate</text>
<text x="152.0" y="669" text-anchor="middle">«aggregate root»</text>
<text x="152.0" y="686" text-anchor="middle" font-weight="bold">RouteTemplate</text>
<text x="48" y="715">-id : UUID</text>
<text x="48" y="732">-code : String</text>
<text x="48" y="749">-name : String</text>
<text x="48" y="766">-description : String [0..1]</text>
<text x="48" y="783">-priority : Int</text>
<text x="48" y="800">-status : RouteTemplateStatus</text>
<text x="48" y="817">-revision : Int</text>
<rect x="414" y="50" width="297" height="172" fill="#e3f2fd" stroke="#333"/>
<line x1="414" y1="96" x2="711" y2="96" stroke="#333"/>
<line x1="414" y1="180" x2="711" y2="180" stroke="#333"/>
<text x="422" y="194">+covers(provinceCode, wardCode) : Boolean</text>
<text x="422" y="211">+tierOf(wardCode : String) : CoverageTier</text>
<text x="562.5" y="68" text-anchor="middle">«aggregate root»</text>
<text x="562.5" y="85" text-anchor="middle" font-weight="bold">ServiceArea</text>
<text x="422" y="114">-id : UUID</text>
<text x="422" y="131">-code : String</text>
<text x="422" y="148">-name : String</text>
<text x="422" y="165">-status : ServiceAreaStatus</text>
<rect x="414" y="312" width="271" height="240" fill="#e3f2fd" stroke="#333"/>
<line x1="414" y1="358" x2="685" y2="358" stroke="#333"/>
<line x1="414" y1="493" x2="685" y2="493" stroke="#333"/>
<text x="422" y="507">+addSchedule(schedule : LaneSchedule)</text>
<text x="422" y="524">+activate()</text>
<text x="422" y="541">+deactivate()</text>
<text x="549.5" y="330" text-anchor="middle">«aggregate root»</text>
<text x="549.5" y="347" text-anchor="middle" font-weight="bold">HubLane</text>
<text x="422" y="376">-id : UUID</text>
<text x="422" y="393">-code : String</text>
<text x="422" y="410">-transportMode : TransportMode</text>
<text x="422" y="427">-estimatedTransitMinutes : Int</text>
<text x="422" y="444">-distanceKm : BigDecimal [0..1]</text>
<text x="422" y="461">-maxShipmentWeightKg : BigDecimal</text>
<text x="422" y="478">-status : HubLaneStatus</text>
<rect x="414" y="642" width="150" height="96" fill="#e3f2fd" stroke="#333"/>
<line x1="414" y1="688" x2="564" y2="688" stroke="#333"/>
<text x="489.0" y="660" text-anchor="middle">«entity»</text>
<text x="489.0" y="677" text-anchor="middle" font-weight="bold">RouteTemplateLeg</text>
<text x="422" y="706">-id : UUID</text>
<text x="422" y="723">-sequence : Int</text>
<rect x="861" y="50" width="191" height="147" fill="#e3f2fd" stroke="#333"/>
<line x1="861" y1="96" x2="1052" y2="96" stroke="#333"/>
<text x="956.5" y="68" text-anchor="middle">«entity»</text>
<text x="956.5" y="85" text-anchor="middle" font-weight="bold">ServiceAreaCoverage</text>
<text x="869" y="114">-id : UUID</text>
<text x="869" y="131">-provinceCode : String</text>
<text x="869" y="148">-wardCode : String [0..1]</text>
<text x="869" y="165">-tier : CoverageTier</text>
<text x="869" y="182">-isActive : Boolean</text>
<rect x="861" y="287" width="363" height="223" fill="#e3f2fd" stroke="#333"/>
<line x1="861" y1="333" x2="1224" y2="333" stroke="#333"/>
<line x1="861" y1="468" x2="1224" y2="468" stroke="#333"/>
<text x="869" y="482">+runsOn(date : LocalDate) : Boolean</text>
<text x="869" y="499">+remainingCapacityKg(date : LocalDate) : BigDecimal</text>
<text x="1042.5" y="305" text-anchor="middle">«entity»</text>
<text x="1042.5" y="322" text-anchor="middle" font-weight="bold">LaneSchedule</text>
<text x="869" y="351">-id : UUID</text>
<text x="869" y="368">-departureTime : LocalTime</text>
<text x="869" y="385">-operatingDays : DayOfWeek [1..7]</text>
<text x="869" y="402">-effectiveFrom : LocalDate</text>
<text x="869" y="419">-effectiveTo : LocalDate [0..1]</text>
<text x="869" y="436">-capacityKg : BigDecimal</text>
<text x="869" y="453">-status : LaneScheduleStatus</text>
<rect x="861" y="600" width="284" height="308" fill="#e3f2fd" stroke="#333"/>
<line x1="861" y1="646" x2="1145" y2="646" stroke="#333"/>
<line x1="861" y1="866" x2="1145" y2="866" stroke="#333"/>
<text x="869" y="880">+consume()</text>
<text x="869" y="897">+release()</text>
<text x="1003.0" y="618" text-anchor="middle">«entity»</text>
<text x="1003.0" y="635" text-anchor="middle" font-weight="bold">LaneCapacityReservation</text>
<text x="869" y="664">-id : UUID</text>
<text x="869" y="681">-batchId : UUID</text>
<text x="869" y="698">-routeRevision : Int</text>
<text x="869" y="715">-legSequence : Int</text>
<text x="869" y="732">-serviceDate : LocalDate</text>
<text x="869" y="749">-departureAt : Instant</text>
<text x="869" y="766">-arrivalAt : Instant</text>
<text x="869" y="783">-reservedWeightKg : BigDecimal</text>
<text x="869" y="800">-departureCapacityKg : BigDecimal</text>
<text x="869" y="817">-routeSource : CapacityRouteSource</text>
<text x="869" y="834">-routeTemplateRevision : Int [0..1]</text>
<text x="869" y="851">-status : LaneCapacityReservationStatus</text>
<rect x="40" y="1008" width="160" height="96" fill="#fff6d5" stroke="#333"/>
<line x1="40" y1="1054" x2="200" y2="1054" stroke="#333"/>
<text x="120.0" y="1026" text-anchor="middle">«enumeration»</text>
<text x="120.0" y="1043" text-anchor="middle" font-weight="bold">NetworkRegionStatus</text>
<text x="48" y="1072">ACTIVE</text>
<text x="48" y="1089">INACTIVE</text>
<rect x="230" y="1008" width="150" height="96" fill="#fff6d5" stroke="#333"/>
<line x1="230" y1="1054" x2="380" y2="1054" stroke="#333"/>
<text x="305.0" y="1026" text-anchor="middle">«enumeration»</text>
<text x="305.0" y="1043" text-anchor="middle" font-weight="bold">ServiceAreaStatus</text>
<text x="238" y="1072">ACTIVE</text>
<text x="238" y="1089">INACTIVE</text>
<rect x="410" y="1008" width="150" height="130" fill="#fff6d5" stroke="#333"/>
<line x1="410" y1="1054" x2="560" y2="1054" stroke="#333"/>
<text x="485.0" y="1026" text-anchor="middle">«enumeration»</text>
<text x="485.0" y="1043" text-anchor="middle" font-weight="bold">CoverageTier</text>
<text x="418" y="1072">URBAN</text>
<text x="418" y="1089">SUBURBAN</text>
<text x="418" y="1106">REMOTE</text>
<text x="418" y="1123">ISLAND</text>
<rect x="590" y="1008" width="150" height="130" fill="#fff6d5" stroke="#333"/>
<line x1="590" y1="1054" x2="740" y2="1054" stroke="#333"/>
<text x="665.0" y="1026" text-anchor="middle">«enumeration»</text>
<text x="665.0" y="1043" text-anchor="middle" font-weight="bold">HubType</text>
<text x="598" y="1072">SORTING_CENTER</text>
<text x="598" y="1089">TRANSIT_HUB</text>
<text x="598" y="1106">DELIVERY_STATION</text>
<text x="598" y="1123">POST_OFFICE</text>
<rect x="770" y="1008" width="150" height="113" fill="#fff6d5" stroke="#333"/>
<line x1="770" y1="1054" x2="920" y2="1054" stroke="#333"/>
<text x="845.0" y="1026" text-anchor="middle">«enumeration»</text>
<text x="845.0" y="1043" text-anchor="middle" font-weight="bold">HubStatus</text>
<text x="778" y="1072">ACTIVE</text>
<text x="778" y="1089">INACTIVE</text>
<text x="778" y="1106">CLOSED</text>
<rect x="950" y="1008" width="150" height="130" fill="#fff6d5" stroke="#333"/>
<line x1="950" y1="1054" x2="1100" y2="1054" stroke="#333"/>
<text x="1025.0" y="1026" text-anchor="middle">«enumeration»</text>
<text x="1025.0" y="1043" text-anchor="middle" font-weight="bold">TransportMode</text>
<text x="958" y="1072">ROAD</text>
<text x="958" y="1089">AIR</text>
<text x="958" y="1106">SEA</text>
<text x="958" y="1123">RAIL</text>
<rect x="40" y="1168" width="150" height="96" fill="#fff6d5" stroke="#333"/>
<line x1="40" y1="1214" x2="190" y2="1214" stroke="#333"/>
<text x="115.0" y="1186" text-anchor="middle">«enumeration»</text>
<text x="115.0" y="1203" text-anchor="middle" font-weight="bold">HubLaneStatus</text>
<text x="48" y="1232">ACTIVE</text>
<text x="48" y="1249">INACTIVE</text>
<rect x="220" y="1168" width="153" height="96" fill="#fff6d5" stroke="#333"/>
<line x1="220" y1="1214" x2="373" y2="1214" stroke="#333"/>
<text x="296.5" y="1186" text-anchor="middle">«enumeration»</text>
<text x="296.5" y="1203" text-anchor="middle" font-weight="bold">LaneScheduleStatus</text>
<text x="228" y="1232">ACTIVE</text>
<text x="228" y="1249">INACTIVE</text>
<rect x="403" y="1168" width="160" height="113" fill="#fff6d5" stroke="#333"/>
<line x1="403" y1="1214" x2="563" y2="1214" stroke="#333"/>
<text x="483.0" y="1186" text-anchor="middle">«enumeration»</text>
<text x="483.0" y="1203" text-anchor="middle" font-weight="bold">RouteTemplateStatus</text>
<text x="411" y="1232">DRAFT</text>
<text x="411" y="1249">ACTIVE</text>
<text x="411" y="1266">ARCHIVED</text>
<rect x="593" y="1168" width="160" height="96" fill="#fff6d5" stroke="#333"/>
<line x1="593" y1="1214" x2="753" y2="1214" stroke="#333"/>
<text x="673.0" y="1186" text-anchor="middle">«enumeration»</text>
<text x="673.0" y="1203" text-anchor="middle" font-weight="bold">CapacityRouteSource</text>
<text x="601" y="1232">ROUTE_TEMPLATE</text>
<text x="601" y="1249">DIRECT_LANE</text>
<rect x="783" y="1168" width="226" height="113" fill="#fff6d5" stroke="#333"/>
<line x1="783" y1="1214" x2="1009" y2="1214" stroke="#333"/>
<text x="896.0" y="1186" text-anchor="middle">«enumeration»</text>
<text x="896.0" y="1203" text-anchor="middle" font-weight="bold">LaneCapacityReservationStatus</text>
<text x="791" y="1232">RESERVED</text>
<text x="791" y="1249">CONSUMED</text>
<text x="791" y="1266">RELEASED</text>
<rect x="1039" y="1168" width="186" height="58" fill="#f2f2f2" stroke="#333"/>
<line x1="1039" y1="1214" x2="1225" y2="1214" stroke="#333"/>
<text x="1132.0" y="1186" text-anchor="middle">«enumeration»</text>
<text x="1132.0" y="1203" text-anchor="middle" font-weight="bold">SharedKernel::DayOfWeek</text>
</svg>