<svg xmlns="http://www.w3.org/2000/svg" width="1144" height="1080" viewBox="0 0 1144 1080" font-family="DejaVu Sans, Arial, sans-serif" font-size="11">
<defs><marker id="open" markerWidth="12" markerHeight="12" refX="11" refY="6" orient="auto"><path d="M0,0 L11,6 L0,12" fill="none" stroke="#333"/></marker><marker id="tri" markerWidth="16" markerHeight="16" refX="15" refY="8" orient="auto"><path d="M0,0 L15,8 L0,16 Z" fill="#fff" stroke="#333"/></marker><marker id="dia" markerWidth="20" markerHeight="12" refX="1" refY="6" orient="auto"><path d="M1,6 L10,1 L19,6 L10,11 Z" fill="#333" stroke="#333"/></marker><marker id="odia" markerWidth="20" markerHeight="12" refX="1" refY="6" orient="auto"><path d="M1,6 L10,1 L19,6 L10,11 Z" fill="#fff" stroke="#333"/></marker></defs>
<rect width="1144" height="1080" fill="#fff"/>
<rect x="1" y="1" width="1142" height="1078" fill="none" stroke="#333" stroke-width="1.3"/>
<path d="M1,1 L118.39999999999999,1 L118.39999999999999,15 L108.39999999999999,25 L1,25 Z" fill="#fff" stroke="#333" stroke-width="1.3"/>
<text x="8" y="18" font-size="12"><tspan font-weight="bold">class</tspan> Shipment</text>
<rect x="40" y="50" width="186" height="181" fill="#e8f5e9" stroke="#333"/>
<line x1="40" y1="96" x2="226" y2="96" stroke="#333"/>
<text x="133.0" y="68" text-anchor="middle">«value object»</text>
<text x="133.0" y="85" text-anchor="middle" font-weight="bold">ShipmentAddressSnapshot</text>
<text x="48" y="114">-contactName : String</text>
<text x="48" y="131">-contactPhone : String</text>
<text x="48" y="148">-addressLine : String</text>
<text x="48" y="165">-provinceCode : String</text>
<text x="48" y="182">-provinceName : String</text>
<text x="48" y="199">-wardCode : String</text>
<text x="48" y="216">-wardName : String</text>
<rect x="256" y="50" width="264" height="147" fill="#e8f5e9" stroke="#333"/>
<line x1="256" y1="96" x2="520" y2="96" stroke="#333"/>
<text x="388.0" y="68" text-anchor="middle">«value object»</text>
<text x="388.0" y="85" text-anchor="middle" font-weight="bold">ShipmentEndpoint</text>
<text x="264" y="114">-serviceAreaId : UUID</text>
<text x="264" y="131">-regionId : UUID</text>
<text x="264" y="148">-hubCode : String</text>
<text x="264" y="165">-hubName : String</text>
<text x="264" y="182">-coverageTier : ShipmentCoverageTier</text>
<rect x="550" y="50" width="158" height="130" fill="#e8f5e9" stroke="#333"/>
<line x1="550" y1="96" x2="708" y2="96" stroke="#333"/>
<text x="629.0" y="68" text-anchor="middle">«value object»</text>
<text x="629.0" y="85" text-anchor="middle" font-weight="bold">ShipmentHold</text>
<text x="558" y="114">-reason : String</text>
<text x="558" y="131">-actorUserId : UUID</text>
<text x="558" y="148">-hubId : UUID [0..1]</text>
<text x="558" y="165">-heldAt : Instant</text>
<rect x="738" y="50" width="150" height="96" fill="#fff6d5" stroke="#333"/>
<line x1="738" y1="96" x2="888" y2="96" stroke="#333"/>
<text x="813.0" y="68" text-anchor="middle">«enumeration»</text>
<text x="813.0" y="85" text-anchor="middle" font-weight="bold">ShippingFeePayer</text>
<text x="746" y="114">SENDER</text>
<text x="746" y="131">RECIPIENT</text>
<rect x="918" y="50" width="166" height="113" fill="#fff6d5" stroke="#333"/>
<line x1="918" y1="96" x2="1084" y2="96" stroke="#333"/>
<text x="1001.0" y="68" text-anchor="middle">«enumeration»</text>
<text x="1001.0" y="85" text-anchor="middle" font-weight="bold">ShipmentServiceLevel</text>
<text x="926" y="114">ECONOMY</text>
<text x="926" y="131">STANDARD</text>
<text x="926" y="148">EXPRESS</text>
<rect x="40" y="261" width="160" height="113" fill="#fff6d5" stroke="#333"/>
<line x1="40" y1="307" x2="200" y2="307" stroke="#333"/>
<text x="120.0" y="279" text-anchor="middle">«enumeration»</text>
<text x="120.0" y="296" text-anchor="middle" font-weight="bold">ShipmentPricingZone</text>
<text x="48" y="325">INTRA_PROVINCE</text>
<text x="48" y="342">INTRA_REGION</text>
<text x="48" y="359">INTER_REGION</text>
<rect x="230" y="261" width="166" height="130" fill="#fff6d5" stroke="#333"/>
<line x1="230" y1="307" x2="396" y2="307" stroke="#333"/>
<text x="313.0" y="279" text-anchor="middle">«enumeration»</text>
<text x="313.0" y="296" text-anchor="middle" font-weight="bold">ShipmentCoverageTier</text>
<text x="238" y="325">URBAN</text>
<text x="238" y="342">SUBURBAN</text>
<text x="238" y="359">REMOTE</text>
<text x="238" y="376">ISLAND</text>
<rect x="426" y="261" width="173" height="130" fill="#fff6d5" stroke="#333"/>
<line x1="426" y1="307" x2="599" y2="307" stroke="#333"/>
<text x="512.5" y="279" text-anchor="middle">«enumeration»</text>
<text x="512.5" y="296" text-anchor="middle" font-weight="bold">ShipmentRoutingStatus</text>
<text x="434" y="325">PENDING</text>
<text x="434" y="342">ROUTE_READY</text>
<text x="434" y="359">ROUTING_FAILED</text>
<text x="434" y="376">REROUTING</text>
<rect x="629" y="261" width="150" height="266" fill="#fff6d5" stroke="#333"/>
<line x1="629" y1="307" x2="779" y2="307" stroke="#333"/>
<text x="704.0" y="279" text-anchor="middle">«enumeration»</text>
<text x="704.0" y="296" text-anchor="middle" font-weight="bold">ShipmentStatus</text>
<text x="637" y="325">CREATED</text>
<text x="637" y="342">AWAITING_PICKUP</text>
<text x="637" y="359">PICKED_UP</text>
<text x="637" y="376">AT_ORIGIN_HUB</text>
<text x="637" y="393">IN_TRANSIT</text>
<text x="637" y="410">AT_DESTINATION_HUB</text>
<text x="637" y="427">OUT_FOR_DELIVERY</text>
<text x="637" y="444">DELIVERED</text>
<text x="637" y="461">DELIVERY_FAILED</text>
<text x="637" y="478">RETURNING</text>
<text x="637" y="495">RETURNED</text>
<text x="637" y="512">CANCELLED</text>
<rect x="809" y="261" width="186" height="113" fill="#fff6d5" stroke="#333"/>
<line x1="809" y1="307" x2="995" y2="307" stroke="#333"/>
<text x="902.0" y="279" text-anchor="middle">«enumeration»</text>
<text x="902.0" y="296" text-anchor="middle" font-weight="bold">ShipmentLifecycleStatus</text>
<text x="817" y="325">OPEN</text>
<text x="817" y="342">COMPLETED</text>
<text x="817" y="359">CANCELLED</text>
<rect x="40" y="557" width="150" height="181" fill="#fff6d5" stroke="#333"/>
<line x1="40" y1="603" x2="190" y2="603" stroke="#333"/>
<text x="115.0" y="575" text-anchor="middle">«enumeration»</text>
<text x="115.0" y="592" text-anchor="middle" font-weight="bold">GoodsCategory</text>
<text x="48" y="621">DOCUMENT</text>
<text x="48" y="638">FASHION</text>
<text x="48" y="655">ELECTRONICS</text>
<text x="48" y="672">COSMETICS</text>
<text x="48" y="689">FOOD</text>
<text x="48" y="706">HOUSEHOLD</text>
<text x="48" y="723">OTHER</text>
<rect x="220" y="557" width="150" height="181" fill="#fff6d5" stroke="#333"/>
<line x1="220" y1="603" x2="370" y2="603" stroke="#333"/>
<text x="295.0" y="575" text-anchor="middle">«enumeration»</text>
<text x="295.0" y="592" text-anchor="middle" font-weight="bold">ParcelStatus</text>
<text x="228" y="621">CREATED</text>
<text x="228" y="638">IN_NETWORK</text>
<text x="228" y="655">DELIVERED</text>
<text x="228" y="672">RETURNED</text>
<text x="228" y="689">LOST</text>
<text x="228" y="706">DAMAGED</text>
<text x="228" y="723">CANCELLED</text>
<rect x="400" y="557" width="150" height="164" fill="#fff6d5" stroke="#333"/>
<line x1="400" y1="603" x2="550" y2="603" stroke="#333"/>
<text x="475.0" y="575" text-anchor="middle">«enumeration»</text>
<text x="475.0" y="592" text-anchor="middle" font-weight="bold">ParcelStage</text>
<text x="408" y="621">FIRST_MILE</text>
<text x="408" y="638">ORIGIN_HUB</text>
<text x="408" y="655">LINE_HAUL</text>
<text x="408" y="672">DESTINATION_HUB</text>
<text x="408" y="689">LAST_MILE</text>
<text x="408" y="706">COMPLETED</text>
<rect x="580" y="557" width="160" height="96" fill="#fff6d5" stroke="#333"/>
<line x1="580" y1="603" x2="740" y2="603" stroke="#333"/>
<text x="660.0" y="575" text-anchor="middle">«enumeration»</text>
<text x="660.0" y="592" text-anchor="middle" font-weight="bold">ParcelFlowDirection</text>
<text x="588" y="621">FORWARD</text>
<text x="588" y="638">RETURN</text>
<rect x="770" y="557" width="153" height="147" fill="#fff6d5" stroke="#333"/>
<line x1="770" y1="603" x2="923" y2="603" stroke="#333"/>
<text x="846.5" y="575" text-anchor="middle">«enumeration»</text>
<text x="846.5" y="592" text-anchor="middle" font-weight="bold">ParcelLocationType</text>
<text x="778" y="621">SENDER</text>
<text x="778" y="638">HUB</text>
<text x="778" y="655">IN_TRANSIT</text>
<text x="778" y="672">WITH_COURIER</text>
<text x="778" y="689">RECIPIENT</text>
<rect x="40" y="768" width="150" height="130" fill="#fff6d5" stroke="#333"/>
<line x1="40" y1="814" x2="190" y2="814" stroke="#333"/>
<text x="115.0" y="786" text-anchor="middle">«enumeration»</text>
<text x="115.0" y="803" text-anchor="middle" font-weight="bold">ParcelCustodyType</text>
<text x="48" y="832">MERCHANT</text>
<text x="48" y="849">HUB</text>
<text x="48" y="866">WORKFORCE_MEMBER</text>
<text x="48" y="883">RECIPIENT</text>
<rect x="220" y="768" width="180" height="96" fill="#fff6d5" stroke="#333"/>
<line x1="220" y1="814" x2="400" y2="814" stroke="#333"/>
<text x="310.0" y="786" text-anchor="middle">«enumeration»</text>
<text x="310.0" y="803" text-anchor="middle" font-weight="bold">DeliveryAttemptOutcome</text>
<text x="228" y="832">DELIVERED</text>
<text x="228" y="849">FAILED</text>
<rect x="430" y="768" width="173" height="164" fill="#fff6d5" stroke="#333"/>
<line x1="430" y1="814" x2="603" y2="814" stroke="#333"/>
<text x="516.5" y="786" text-anchor="middle">«enumeration»</text>
<text x="516.5" y="803" text-anchor="middle" font-weight="bold">DeliveryFailureReason</text>
<text x="438" y="832">RECIPIENT_UNAVAILABLE</text>
<text x="438" y="849">UNREACHABLE_PHONE</text>
<text x="438" y="866">WRONG_ADDRESS</text>
<text x="438" y="883">RECIPIENT_REFUSED</text>
<text x="438" y="900">RESCHEDULE_REQUESTED</text>
<text x="438" y="917">OTHER</text>
<rect x="633" y="768" width="160" height="113" fill="#fff6d5" stroke="#333"/>
<line x1="633" y1="814" x2="793" y2="814" stroke="#333"/>
<text x="713.0" y="786" text-anchor="middle">«enumeration»</text>
<text x="713.0" y="803" text-anchor="middle" font-weight="bold">DeliveryProofMethod</text>
<text x="641" y="832">SIGNATURE</text>
<text x="641" y="849">PHOTO</text>
<text x="641" y="866">OTP</text>
<rect x="823" y="768" width="206" height="58" fill="#f2f2f2" stroke="#333"/>
<line x1="823" y1="814" x2="1029" y2="814" stroke="#333"/>
<text x="926.0" y="786" text-anchor="middle">«value object»</text>
<text x="926.0" y="803" text-anchor="middle" font-weight="bold">SharedKernel::FeeBreakdown</text>
<rect x="40" y="962" width="232" height="58" fill="#f2f2f2" stroke="#333"/>
<line x1="40" y1="1008" x2="272" y2="1008" stroke="#333"/>
<text x="156.0" y="980" text-anchor="middle">«value object»</text>
<text x="156.0" y="997" text-anchor="middle" font-weight="bold">SharedKernel::DeliveryEstimate</text>
<rect x="302" y="962" width="166" height="58" fill="#f2f2f2" stroke="#333"/>
<line x1="302" y1="1008" x2="468" y2="1008" stroke="#333"/>
<text x="385.0" y="980" text-anchor="middle">«value object»</text>
<text x="385.0" y="997" text-anchor="middle" font-weight="bold">SharedKernel::Weight</text>
<rect x="498" y="962" width="193" height="58" fill="#f2f2f2" stroke="#333"/>
<line x1="498" y1="1008" x2="691" y2="1008" stroke="#333"/>
<text x="594.5" y="980" text-anchor="middle">«value object»</text>
<text x="594.5" y="997" text-anchor="middle" font-weight="bold">SharedKernel::Dimensions</text>
<rect x="721" y="962" width="180" height="58" fill="#f2f2f2" stroke="#333"/>
<line x1="721" y1="1008" x2="901" y2="1008" stroke="#333"/>
<text x="811.0" y="980" text-anchor="middle">«value object»</text>
<text x="811.0" y="997" text-anchor="middle" font-weight="bold">SharedKernel::GeoPoint</text>
</svg>