<svg xmlns="http://www.w3.org/2000/svg" width="896" height="1006" viewBox="0 0 896 1006" font-family="DejaVu Sans, Arial, sans-serif"><defs><marker id="arr" markerWidth="10" markerHeight="10" refX="9" refY="5" orient="auto"><path d="M0,0 L10,5 L0,10 Z" fill="#1f2d3d"/></marker><marker id="open" markerWidth="11" markerHeight="11" refX="10" refY="5.5" orient="auto"><path d="M0,0 L10,5.5 L0,11" fill="none" stroke="#1f2d3d" stroke-width="1.2"/></marker></defs><rect width="896" height="1006" fill="#fff"/><rect x="1" y="1" width="894" height="1004" fill="none" stroke="#1f2d3d" stroke-width="1.3"/><path d="M1,1 L160.6,1 L160.6,14 L150.6,24 L1,24 Z" fill="#fff" stroke="#1f2d3d" stroke-width="1.3"/><text x="8" y="17" font-size="11.5"><tspan font-weight="bold">act</tspan> Đăng ký tài khoản</text><rect x="8" y="32" width="880" height="966" fill="none" stroke="#1f2d3d"/><line x1="428" y1="32" x2="428" y2="998" stroke="#1f2d3d"/><line x1="8" y1="58" x2="888" y2="58" stroke="#1f2d3d"/><text x="218.0" y="48.8" font-size="11.5" font-weight="bold" text-anchor="middle">Guest</text><text x="658.0" y="48.8" font-size="11.5" font-weight="bold" text-anchor="middle">Hệ thống PAVEX</text><circle cx="248" cy="78" r="10" fill="#1f2d3d"/><path d="M248,88 L248,104.0" fill="none" stroke="#1f2d3d" marker-end="url(#arr)"/><rect x="143.0" y="104.0" width="210" height="40" rx="13" fill="#cfe8f7" stroke="#1f2d3d"/><text x="248.0" y="127.7" font-size="11" font-weight="normal" text-anchor="middle">Chọn Đăng ký tài khoản</text><path d="M248,144.0 L248,160.0 L566,160.0 L566,174.0" fill="none" stroke="#1f2d3d" marker-end="url(#arr)"/><rect x="461.0" y="174.0" width="210" height="40" rx="13" fill="#cfe8f7" stroke="#1f2d3d"/><text x="566.0" y="197.7" font-size="11" font-weight="normal" text-anchor="middle">Hiển thị form đăng ký</text><path d="M566,214.0 L566,230.0 L248,230.0 L248,244.0" fill="none" stroke="#1f2d3d" marker-end="url(#arr)"/><path d="M248,244.0 L263.0,259.0 L248,274.0 L233.0,259.0 Z" fill="#fff" stroke="#1f2d3d" stroke-width="1.2"/><path d="M248,274.0 L248,296.0" fill="none" stroke="#1f2d3d" marker-end="url(#arr)"/><rect x="143.0" y="296.0" width="210" height="44" rx="13" fill="#cfe8f7" stroke="#1f2d3d"/><text x="248.0" y="314.7" font-size="11" font-weight="normal" text-anchor="middle">Nhập họ tên, email, mật khẩu</text><text x="248.0" y="328.7" font-size="11" font-weight="normal" text-anchor="middle">và nhấn Đăng ký</text><path d="M248,340.0 L248,356.0 L566,356.0 L566,370.0" fill="none" stroke="#1f2d3d" marker-end="url(#arr)"/><rect x="461.0" y="370.0" width="210" height="40" rx="13" fill="#cfe8f7" stroke="#1f2d3d"/><text x="566.0" y="393.7" font-size="11" font-weight="normal" text-anchor="middle">Kiểm tra dữ liệu nhập</text><path d="M566,410.0 L566,445.0" fill="none" stroke="#1f2d3d" marker-end="url(#arr)"/><path d="M566,445.0 L581.0,460.0 L566,475.0 L551.0,460.0 Z" fill="#fff" stroke="#1f2d3d" stroke-width="1.2"/><rect x="703.0" y="440.0" width="150" height="40" rx="12" fill="#cfe8f7" stroke="#1f2d3d"/><text x="778.0" y="463.3" font-size="10" font-weight="normal" text-anchor="middle">Báo lỗi từng trường</text><path d="M581.0,460.0 L703.0,460.0" fill="none" stroke="#1f2d3d" marker-end="url(#arr)"/><text x="585.0" y="454.0" font-size="10" text-anchor="start" fill="#222">[không hợp lệ]</text><path d="M853.0,460.0 L880,460.0 L880,259.0 L263.0,259.0" fill="none" stroke="#1f2d3d" marker-end="url(#arr)"/><path d="M566,475.0 L566,516.0" fill="none" stroke="#1f2d3d" marker-end="url(#arr)"/><text x="572.0" y="487.0" font-size="10" text-anchor="start" fill="#222">[hợp lệ]</text><rect x="461.0" y="516.0" width="210" height="40" rx="13" fill="#cfe8f7" stroke="#1f2d3d"/><text x="566.0" y="539.7" font-size="11" font-weight="normal" text-anchor="middle">Kiểm tra email đã tồn tại</text><path d="M566,556.0 L566,591.0" fill="none" stroke="#1f2d3d" marker-end="url(#arr)"/><path d="M566,591.0 L581.0,606.0 L566,621.0 L551.0,606.0 Z" fill="#fff" stroke="#1f2d3d" stroke-width="1.2"/><rect x="703.0" y="586.0" width="150" height="40" rx="12" fill="#cfe8f7" stroke="#1f2d3d"/><text x="778.0" y="602.8" font-size="10" font-weight="normal" text-anchor="middle">Thông báo email đã được</text><text x="778.0" y="615.8" font-size="10" font-weight="normal" text-anchor="middle">đăng ký</text><path d="M581.0,606.0 L703.0,606.0" fill="none" stroke="#1f2d3d" marker-end="url(#arr)"/><text x="585.0" y="600.0" font-size="10" text-anchor="start" fill="#222">[email đã tồn tại]</text><path d="M778,626.0 L778,642.0" fill="none" stroke="#1f2d3d" marker-end="url(#arr)"/><circle cx="778" cy="653.0" r="11" fill="#fff" stroke="#1f2d3d" stroke-width="1.5"/><circle cx="778" cy="653.0" r="6.5" fill="#1f2d3d"/><path d="M566,621.0 L566,662.0" fill="none" stroke="#1f2d3d" marker-end="url(#arr)"/><text x="572.0" y="633.0" font-size="10" text-anchor="start" fill="#222">[email chưa tồn tại]</text><rect x="461.0" y="662.0" width="210" height="44" rx="13" fill="#cfe8f7" stroke="#1f2d3d"/><text x="566.0" y="680.7" font-size="11" font-weight="normal" text-anchor="middle">Tạo tài khoản và hồ sơ</text><text x="566.0" y="694.7" font-size="11" font-weight="normal" text-anchor="middle">(INCOMPLETE)</text><path d="M566,706.0 L566,736.0" fill="none" stroke="#1f2d3d" marker-end="url(#arr)"/><rect x="461.0" y="736.0" width="210" height="44" rx="13" fill="#cfe8f7" stroke="#1f2d3d"/><text x="566.0" y="754.7" font-size="11" font-weight="normal" text-anchor="middle">Gửi email xác minh, báo đăng</text><text x="566.0" y="768.7" font-size="11" font-weight="normal" text-anchor="middle">ký thành công</text><path d="M566,780.0 L566,796.0 L248,796.0 L248,810.0" fill="none" stroke="#1f2d3d" marker-end="url(#arr)"/><rect x="143.0" y="810.0" width="210" height="40" rx="13" fill="#cfe8f7" stroke="#1f2d3d"/><text x="248.0" y="833.7" font-size="11" font-weight="normal" text-anchor="middle">Mở liên kết xác minh</text><path d="M248,850.0 L248,866.0 L566,866.0 L566,880.0" fill="none" stroke="#1f2d3d" marker-end="url(#arr)"/><rect x="461.0" y="880.0" width="210" height="44" rx="13" fill="#cfe8f7" stroke="#1f2d3d"/><text x="566.0" y="898.7" font-size="11" font-weight="normal" text-anchor="middle">Xác nhận email, chuyển đến</text><text x="566.0" y="912.7" font-size="11" font-weight="normal" text-anchor="middle">Đăng nhập</text><path d="M566,924.0 L566,965" fill="none" stroke="#1f2d3d" marker-end="url(#arr)"/><circle cx="566" cy="976" r="11" fill="#fff" stroke="#1f2d3d" stroke-width="1.5"/><circle cx="566" cy="976" r="6.5" fill="#1f2d3d"/></svg>