<svg xmlns="http://www.w3.org/2000/svg" width="915" height="728" viewBox="0 0 915 728" font-family="DejaVu Sans, Arial, sans-serif"><defs><marker id="arr" markerWidth="10" markerHeight="10" refX="9" refY="5" orient="auto"><path d="M0,0 L10,5 L0,10 Z" fill="#1f2d3d"/></marker><marker id="open" markerWidth="10" markerHeight="10" refX="9" refY="5" orient="auto"><path d="M0,0 L10,5 L0,10" fill="none" stroke="#1f2d3d"/></marker></defs><rect width="915" height="728" fill="#fff"/><circle cx="107.5" cy="20" r="7" fill="#fff" stroke="#1f2d3d"/><path d="M107.5,27 L107.5,42 M96.5,32 L118.5,32 M107.5,42 L98.5,54 M107.5,42 L116.5,54" stroke="#1f2d3d" fill="none"/><text x="107.5" y="69.7" font-size="11" font-weight="normal" text-anchor="middle">Platform Admin</text><line x1="107.5" y1="78" x2="107.5" y2="714" stroke="#1f2d3d" stroke-dasharray="5,4"/><line x1="260.5" y1="22" x2="260.5" y2="46" stroke="#1f2d3d" stroke-width="1.5"/><line x1="260.5" y1="34" x2="270.5" y2="34" stroke="#1f2d3d" stroke-width="1.5"/><circle cx="284.5" cy="34" r="13" fill="#7acff5" stroke="#1f2d3d"/><text x="282.5" y="69.7" font-size="11" font-weight="normal" text-anchor="middle">GD_QuanLyCuaHang</text><line x1="282.5" y1="78" x2="282.5" y2="714" stroke="#1f2d3d" stroke-dasharray="5,4"/><circle cx="457.5" cy="34" r="13" fill="#7acff5" stroke="#1f2d3d"/><path d="M453.5,17 L459.5,21 L453.5,25" fill="none" stroke="#1f2d3d" stroke-width="1.5"/><text x="457.5" y="69.7" font-size="11" font-weight="normal" text-anchor="middle">CTRL_CuaHang</text><line x1="457.5" y1="78" x2="457.5" y2="714" stroke="#1f2d3d" stroke-dasharray="5,4"/><circle cx="632.5" cy="34" r="13" fill="#7acff5" stroke="#1f2d3d"/><line x1="618.5" y1="49" x2="646.5" y2="49" stroke="#1f2d3d" stroke-width="1.5"/><text x="632.5" y="69.7" font-size="11" font-weight="normal" text-anchor="middle">Merchant</text><line x1="632.5" y1="78" x2="632.5" y2="714" stroke="#1f2d3d" stroke-dasharray="5,4"/><rect x="789.5" y="21" width="36" height="26" fill="#fff" stroke="#1f2d3d"/><text x="807.5" y="69.7" font-size="11" font-weight="normal" text-anchor="middle">Dịch vụ thông báo</text><line x1="807.5" y1="78" x2="807.5" y2="714" stroke="#1f2d3d" stroke-dasharray="5,4"/><rect x="102.5" y="88" width="10" height="616" fill="#7acff5" stroke="#1f2d3d"/><text x="195.0" y="108" font-size="10.5" text-anchor="middle">1: Mở Quản lý cửa hàng,</text><text x="195.0" y="122" font-size="10.5" text-anchor="middle">lọc Chờ xác minh</text><line x1="112.5" y1="128" x2="277.5" y2="128" stroke="#1f2d3d" marker-end="url(#arr)"/><text x="370.0" y="160" font-size="10.5" text-anchor="middle">2:</text><text x="370.0" y="174" font-size="10.5" text-anchor="middle">list(status=PENDING_VERIFICATION)</text><line x1="287.5" y1="180" x2="452.5" y2="180" stroke="#1f2d3d" marker-end="url(#arr)"/><text x="545.0" y="212" font-size="10.5" text-anchor="middle">3: findByStatus(...)</text><line x1="462.5" y1="218" x2="627.5" y2="218" stroke="#1f2d3d" marker-end="url(#arr)"/><text x="545.0" y="250" font-size="10.5" text-anchor="middle">merchants[]</text><line x1="627.5" y1="256" x2="462.5" y2="256" stroke="#1f2d3d" stroke-dasharray="6,4" marker-end="url(#open)"/><text x="195.0" y="288" font-size="10.5" text-anchor="middle">4: Chọn cửa hàng, nhấn</text><text x="195.0" y="302" font-size="10.5" text-anchor="middle">Duyệt</text><line x1="112.5" y1="308" x2="277.5" y2="308" stroke="#1f2d3d" marker-end="url(#arr)"/><text x="370.0" y="340" font-size="10.5" text-anchor="middle">5: verify(merchantId)</text><line x1="287.5" y1="346" x2="452.5" y2="346" stroke="#1f2d3d" marker-end="url(#arr)"/><text x="545.0" y="378" font-size="10.5" text-anchor="middle">6: findById(merchantId)</text><line x1="462.5" y1="384" x2="627.5" y2="384" stroke="#1f2d3d" marker-end="url(#arr)"/><text x="545.0" y="416" font-size="10.5" text-anchor="middle">merchant</text><line x1="627.5" y1="422" x2="462.5" y2="422" stroke="#1f2d3d" stroke-dasharray="6,4" marker-end="url(#open)"/><text x="469.5" y="456" font-size="10.5">7: Kiểm tra chuyển trạng</text><text x="469.5" y="470" font-size="10.5">thái hợp lệ</text><path d="M462.5,476 L497.5,476 L497.5,492 L464.5,492" fill="none" stroke="#1f2d3d" marker-end="url(#arr)"/><text x="545.0" y="518" font-size="10.5" text-anchor="middle">8: update(status=ACTIVE,</text><text x="545.0" y="532" font-size="10.5" text-anchor="middle">verifiedAt, verifiedBy)</text><line x1="462.5" y1="538" x2="627.5" y2="538" stroke="#1f2d3d" marker-end="url(#arr)"/><text x="632.5" y="570" font-size="10.5" text-anchor="middle">9: notify(owner, MERCHANT_VERIFIED)</text><line x1="462.5" y1="576" x2="802.5" y2="576" stroke="#1f2d3d" marker-end="url(#arr)"/><text x="370.0" y="608" font-size="10.5" text-anchor="middle">ok</text><line x1="452.5" y1="614" x2="287.5" y2="614" stroke="#1f2d3d" stroke-dasharray="6,4" marker-end="url(#open)"/><text x="195.0" y="646" font-size="10.5" text-anchor="middle">10: Thông báo duyệt</text><text x="195.0" y="660" font-size="10.5" text-anchor="middle">thành công</text><line x1="277.5" y1="666" x2="112.5" y2="666" stroke="#1f2d3d" marker-end="url(#arr)"/></svg>