<svg xmlns="http://www.w3.org/2000/svg" width="896" height="854" viewBox="0 0 896 854" font-family="DejaVu Sans, Arial, sans-serif"><defs><marker id="arr" markerWidth="10" markerHeight="10" refX="9" refY="5" orient="auto"><path d="M0,0 L10,5 L0,10 Z" fill="#1f2d3d"/></marker><marker id="open" markerWidth="11" markerHeight="11" refX="10" refY="5.5" orient="auto"><path d="M0,0 L10,5.5 L0,11" fill="none" stroke="#1f2d3d" stroke-width="1.2"/></marker></defs><rect width="896" height="854" fill="#fff"/><rect x="1" y="1" width="894" height="852" fill="none" stroke="#1f2d3d" stroke-width="1.3"/><path d="M1,1 L226.6,1 L226.6,14 L216.6,24 L1,24 Z" fill="#fff" stroke="#1f2d3d" stroke-width="1.3"/><text x="8" y="17" font-size="11.5"><tspan font-weight="bold">act</tspan> Tra cứu và theo dõi vận đơn</text><rect x="8" y="32" width="880" height="814" fill="none" stroke="#1f2d3d"/><line x1="428" y1="32" x2="428" y2="846" stroke="#1f2d3d"/><line x1="8" y1="58" x2="888" y2="58" stroke="#1f2d3d"/><text x="218.0" y="48.8" font-size="11.5" font-weight="bold" text-anchor="middle">Người tra cứu</text><text x="658.0" y="48.8" font-size="11.5" font-weight="bold" text-anchor="middle">Hệ thống PAVEX</text><circle cx="248" cy="78" r="10" fill="#1f2d3d"/><path d="M248,88 L248,104.0" fill="none" stroke="#1f2d3d" marker-end="url(#arr)"/><rect x="143.0" y="104.0" width="210" height="40" rx="13" fill="#cfe8f7" stroke="#1f2d3d"/><text x="248.0" y="127.7" font-size="11" font-weight="normal" text-anchor="middle">Truy cập Tra cứu vận đơn</text><path d="M248,144.0 L248,160.0 L566,160.0 L566,174.0" fill="none" stroke="#1f2d3d" marker-end="url(#arr)"/><rect x="461.0" y="174.0" width="210" height="40" rx="13" fill="#cfe8f7" stroke="#1f2d3d"/><text x="566.0" y="197.7" font-size="11" font-weight="normal" text-anchor="middle">Hiển thị ô nhập mã vận đơn</text><path d="M566,214.0 L566,230.0 L248,230.0 L248,244.0" fill="none" stroke="#1f2d3d" marker-end="url(#arr)"/><path d="M248,244.0 L263.0,259.0 L248,274.0 L233.0,259.0 Z" fill="#fff" stroke="#1f2d3d" stroke-width="1.2"/><path d="M248,274.0 L248,296.0" fill="none" stroke="#1f2d3d" marker-end="url(#arr)"/><rect x="143.0" y="296.0" width="210" height="40" rx="13" fill="#cfe8f7" stroke="#1f2d3d"/><text x="248.0" y="319.7" font-size="11" font-weight="normal" text-anchor="middle">Nhập mã vận đơn, nhấn Tra cứu</text><path d="M248,336.0 L248,352.0 L566,352.0 L566,366.0" fill="none" stroke="#1f2d3d" marker-end="url(#arr)"/><rect x="461.0" y="366.0" width="210" height="40" rx="13" fill="#cfe8f7" stroke="#1f2d3d"/><text x="566.0" y="389.7" font-size="11" font-weight="normal" text-anchor="middle">Kiểm tra định dạng mã</text><path d="M566,406.0 L566,441.0" fill="none" stroke="#1f2d3d" marker-end="url(#arr)"/><path d="M566,441.0 L581.0,456.0 L566,471.0 L551.0,456.0 Z" fill="#fff" stroke="#1f2d3d" stroke-width="1.2"/><rect x="703.0" y="436.0" width="150" height="40" rx="12" fill="#cfe8f7" stroke="#1f2d3d"/><text x="778.0" y="459.3" font-size="10" font-weight="normal" text-anchor="middle">Báo lỗi mã vận đơn</text><path d="M581.0,456.0 L703.0,456.0" fill="none" stroke="#1f2d3d" marker-end="url(#arr)"/><text x="585.0" y="450.0" font-size="10" text-anchor="start" fill="#222">[không hợp lệ]</text><path d="M853.0,456.0 L880,456.0 L880,259.0 L263.0,259.0" fill="none" stroke="#1f2d3d" marker-end="url(#arr)"/><path d="M566,471.0 L566,512.0" fill="none" stroke="#1f2d3d" marker-end="url(#arr)"/><text x="572.0" y="483.0" font-size="10" text-anchor="start" fill="#222">[hợp lệ]</text><rect x="461.0" y="512.0" width="210" height="40" rx="13" fill="#cfe8f7" stroke="#1f2d3d"/><text x="566.0" y="535.7" font-size="11" font-weight="normal" text-anchor="middle">Tìm vận đơn theo mã</text><path d="M566,552.0 L566,587.0" fill="none" stroke="#1f2d3d" marker-end="url(#arr)"/><path d="M566,587.0 L581.0,602.0 L566,617.0 L551.0,602.0 Z" fill="#fff" stroke="#1f2d3d" stroke-width="1.2"/><rect x="703.0" y="582.0" width="150" height="40" rx="12" fill="#cfe8f7" stroke="#1f2d3d"/><text x="778.0" y="598.8" font-size="10" font-weight="normal" text-anchor="middle">Thông báo vận đơn không</text><text x="778.0" y="611.8" font-size="10" font-weight="normal" text-anchor="middle">tồn tại</text><path d="M581.0,602.0 L703.0,602.0" fill="none" stroke="#1f2d3d" marker-end="url(#arr)"/><text x="585.0" y="596.0" font-size="10" text-anchor="start" fill="#222">[không tìm thấy]</text><path d="M778,622.0 L778,638.0" fill="none" stroke="#1f2d3d" marker-end="url(#arr)"/><circle cx="778" cy="649.0" r="11" fill="#fff" stroke="#1f2d3d" stroke-width="1.5"/><circle cx="778" cy="649.0" r="6.5" fill="#1f2d3d"/><path d="M566,617.0 L566,658.0" fill="none" stroke="#1f2d3d" marker-end="url(#arr)"/><text x="572.0" y="629.0" font-size="10" text-anchor="start" fill="#222">[tìm thấy]</text><rect x="461.0" y="658.0" width="210" height="40" rx="13" fill="#cfe8f7" stroke="#1f2d3d"/><text x="566.0" y="681.7" font-size="11" font-weight="normal" text-anchor="middle">Lấy sự kiện hành trình</text><path d="M566,698.0 L566,728.0" fill="none" stroke="#1f2d3d" marker-end="url(#arr)"/><rect x="461.0" y="728.0" width="210" height="44" rx="13" fill="#cfe8f7" stroke="#1f2d3d"/><text x="566.0" y="746.7" font-size="11" font-weight="normal" text-anchor="middle">Hiển thị trạng thái, tiến</text><text x="566.0" y="760.7" font-size="11" font-weight="normal" text-anchor="middle">trình, timeline</text><path d="M566,772.0 L566,813" fill="none" stroke="#1f2d3d" marker-end="url(#arr)"/><circle cx="566" cy="824" r="11" fill="#fff" stroke="#1f2d3d" stroke-width="1.5"/><circle cx="566" cy="824" r="6.5" fill="#1f2d3d"/></svg>