<svg xmlns="http://www.w3.org/2000/svg" width="1265" height="794" viewBox="0 0 1265 794" font-family="DejaVu Sans, Arial, sans-serif"><defs><marker id="arr" markerWidth="10" markerHeight="10" refX="9" refY="5" orient="auto"><path d="M0,0 L10,5 L0,10 Z" fill="#1f2d3d"/></marker><marker id="open" markerWidth="10" markerHeight="10" refX="9" refY="5" orient="auto"><path d="M0,0 L10,5 L0,10" fill="none" stroke="#1f2d3d"/></marker></defs><rect width="1265" height="794" fill="#fff"/><circle cx="107.5" cy="20" r="7" fill="#fff" stroke="#1f2d3d"/><path d="M107.5,27 L107.5,42 M96.5,32 L118.5,32 M107.5,42 L98.5,54 M107.5,42 L116.5,54" stroke="#1f2d3d" fill="none"/><text x="107.5" y="69.7" font-size="11" font-weight="normal" text-anchor="middle">Merchant</text><line x1="107.5" y1="78" x2="107.5" y2="780" stroke="#1f2d3d" stroke-dasharray="5,4"/><line x1="260.5" y1="22" x2="260.5" y2="46" stroke="#1f2d3d" stroke-width="1.5"/><line x1="260.5" y1="34" x2="270.5" y2="34" stroke="#1f2d3d" stroke-width="1.5"/><circle cx="284.5" cy="34" r="13" fill="#7acff5" stroke="#1f2d3d"/><text x="282.5" y="69.7" font-size="11" font-weight="normal" text-anchor="middle">GD_TaoDonHang</text><line x1="282.5" y1="78" x2="282.5" y2="780" stroke="#1f2d3d" stroke-dasharray="5,4"/><circle cx="457.5" cy="34" r="13" fill="#7acff5" stroke="#1f2d3d"/><path d="M453.5,17 L459.5,21 L453.5,25" fill="none" stroke="#1f2d3d" stroke-width="1.5"/><text x="457.5" y="69.7" font-size="11" font-weight="normal" text-anchor="middle">CTRL_DonHang</text><line x1="457.5" y1="78" x2="457.5" y2="780" stroke="#1f2d3d" stroke-dasharray="5,4"/><circle cx="632.5" cy="34" r="13" fill="#7acff5" stroke="#1f2d3d"/><path d="M628.5,17 L634.5,21 L628.5,25" fill="none" stroke="#1f2d3d" stroke-width="1.5"/><text x="632.5" y="69.7" font-size="11" font-weight="normal" text-anchor="middle">CTRL_BaoGia</text><line x1="632.5" y1="78" x2="632.5" y2="780" stroke="#1f2d3d" stroke-dasharray="5,4"/><circle cx="807.5" cy="34" r="13" fill="#7acff5" stroke="#1f2d3d"/><line x1="793.5" y1="49" x2="821.5" y2="49" stroke="#1f2d3d" stroke-width="1.5"/><text x="807.5" y="69.7" font-size="11" font-weight="normal" text-anchor="middle">Shipment / Parcel</text><line x1="807.5" y1="78" x2="807.5" y2="780" stroke="#1f2d3d" stroke-dasharray="5,4"/><circle cx="982.5" cy="34" r="13" fill="#7acff5" stroke="#1f2d3d"/><line x1="968.5" y1="49" x2="996.5" y2="49" stroke="#1f2d3d" stroke-width="1.5"/><text x="982.5" y="69.7" font-size="11" font-weight="normal" text-anchor="middle">LaneCapacityReservation</text><line x1="982.5" y1="78" x2="982.5" y2="780" stroke="#1f2d3d" stroke-dasharray="5,4"/><circle cx="1157.5" cy="34" r="13" fill="#7acff5" stroke="#1f2d3d"/><line x1="1143.5" y1="49" x2="1171.5" y2="49" stroke="#1f2d3d" stroke-width="1.5"/><text x="1157.5" y="69.7" font-size="11" font-weight="normal" text-anchor="middle">OperationalAssignment</text><line x1="1157.5" y1="78" x2="1157.5" y2="780" stroke="#1f2d3d" stroke-dasharray="5,4"/><rect x="102.5" y="88" width="10" height="682" fill="#7acff5" stroke="#1f2d3d"/><text x="195.0" y="108" font-size="10.5" text-anchor="middle">1: Nhập người gửi, người</text><text x="195.0" y="122" font-size="10.5" text-anchor="middle">nhận, kiện hàng, COD</text><line x1="112.5" y1="128" x2="277.5" y2="128" stroke="#1f2d3d" marker-end="url(#arr)"/><text x="457.5" y="160" font-size="10.5" text-anchor="middle">2: createQuote(...)</text><line x1="287.5" y1="166" x2="627.5" y2="166" stroke="#1f2d3d" marker-end="url(#arr)"/><text x="457.5" y="198" font-size="10.5" text-anchor="middle">options[], quoteId</text><line x1="627.5" y1="204" x2="287.5" y2="204" stroke="#1f2d3d" stroke-dasharray="6,4" marker-end="url(#open)"/><text x="195.0" y="236" font-size="10.5" text-anchor="middle">3: Chọn dịch vụ, Xác</text><text x="195.0" y="250" font-size="10.5" text-anchor="middle">nhận tạo đơn</text><line x1="112.5" y1="256" x2="277.5" y2="256" stroke="#1f2d3d" marker-end="url(#arr)"/><text x="370.0" y="288" font-size="10.5" text-anchor="middle">4:</text><text x="370.0" y="302" font-size="10.5" text-anchor="middle">createShipment(quoteId,</text><text x="370.0" y="316" font-size="10.5" text-anchor="middle">serviceLevel, sender,</text><text x="370.0" y="330" font-size="10.5" text-anchor="middle">recipient, parcels)</text><line x1="287.5" y1="336" x2="452.5" y2="336" stroke="#1f2d3d" marker-end="url(#arr)"/><text x="545.0" y="368" font-size="10.5" text-anchor="middle">5:</text><text x="545.0" y="382" font-size="10.5" text-anchor="middle">validateQuote(quoteId)</text><line x1="462.5" y1="388" x2="627.5" y2="388" stroke="#1f2d3d" marker-end="url(#arr)"/><text x="545.0" y="420" font-size="10.5" text-anchor="middle">quote còn hiệu lực</text><line x1="627.5" y1="426" x2="462.5" y2="426" stroke="#1f2d3d" stroke-dasharray="6,4" marker-end="url(#open)"/><text x="632.5" y="458" font-size="10.5" text-anchor="middle">6: save(shipment, parcels, trackingCode)</text><line x1="462.5" y1="464" x2="802.5" y2="464" stroke="#1f2d3d" marker-end="url(#arr)"/><text x="469.5" y="498" font-size="10.5">7: Tìm lộ trình</text><text x="469.5" y="512" font-size="10.5">(RouteTemplate / tuyến)</text><path d="M462.5,518 L497.5,518 L497.5,534 L464.5,534" fill="none" stroke="#1f2d3d" marker-end="url(#arr)"/><text x="720.0" y="560" font-size="10.5" text-anchor="middle">8: reserve(lane, schedule, weight) cho từng chặng</text><line x1="462.5" y1="566" x2="977.5" y2="566" stroke="#1f2d3d" marker-end="url(#arr)"/><text x="720.0" y="598" font-size="10.5" text-anchor="middle">batchId</text><line x1="977.5" y1="604" x2="462.5" y2="604" stroke="#1f2d3d" stroke-dasharray="6,4" marker-end="url(#open)"/><text x="807.5" y="636" font-size="10.5" text-anchor="middle">9: create(PICKUP, originHub)</text><line x1="462.5" y1="642" x2="1152.5" y2="642" stroke="#1f2d3d" marker-end="url(#arr)"/><text x="370.0" y="674" font-size="10.5" text-anchor="middle">trackingCode, status</text><line x1="452.5" y1="680" x2="287.5" y2="680" stroke="#1f2d3d" stroke-dasharray="6,4" marker-end="url(#open)"/><text x="195.0" y="712" font-size="10.5" text-anchor="middle">10: Hiển thị mã vận đơn,</text><text x="195.0" y="726" font-size="10.5" text-anchor="middle">Chờ lấy hàng</text><line x1="277.5" y1="732" x2="112.5" y2="732" stroke="#1f2d3d" marker-end="url(#arr)"/><rect x="12" y="478" width="1241" height="142" fill="none" stroke="#555"/><path d="M12,478 L56,478 L56,488 L48,496 L12,496 Z" fill="#eef7fc" stroke="#555"/><text x="18" y="491" font-size="10" font-weight="bold">opt</text><text x="62" y="491" font-size="10" fill="#333">[có lộ trình và còn tải; ngược lại: ROUTING_FAILED]</text></svg>