<svg xmlns="http://www.w3.org/2000/svg" width="880" height="852" viewBox="0 0 880 852" font-family="DejaVu Sans, Arial, sans-serif"><defs><marker id="arr" markerWidth="10" markerHeight="10" refX="9" refY="5" orient="auto"><path d="M0,0 L10,5 L0,10 Z" fill="#1f2d3d"/></marker><marker id="open" markerWidth="10" markerHeight="10" refX="9" refY="5" orient="auto"><path d="M0,0 L10,5 L0,10" fill="none" stroke="#1f2d3d"/></marker></defs><rect width="880" height="852" fill="#fff"/><rect x="1" y="1" width="878" height="850" fill="none" stroke="#1f2d3d" stroke-width="1.5"/><line x1="420" y1="1" x2="420" y2="851" stroke="#1f2d3d" stroke-width="1.5"/><line x1="1" y1="26" x2="879" y2="26" stroke="#1f2d3d" stroke-width="1.5"/><text x="210.0" y="17.7" font-size="11" font-weight="bold" text-anchor="middle">HUB MANAGER</text><text x="650.0" y="17.7" font-size="11" font-weight="bold" text-anchor="middle">HỆ THỐNG</text><circle cx="245" cy="46" r="10" fill="#1f2d3d"/><path d="M245,56 L245,74.0" fill="none" stroke="#1f2d3d" marker-end="url(#arr)"/><rect x="145.0" y="74.0" width="200" height="44" rx="12" fill="#7acff5" stroke="#1f2d3d"/><text x="245.0" y="99.7" font-size="11" font-weight="normal" text-anchor="middle">Mở Ca làm việc</text><path d="M245,118.0 L245,133.0 L570,133.0 L570,148.0" fill="none" stroke="#1f2d3d" marker-end="url(#arr)"/><rect x="470.0" y="148.0" width="200" height="44" rx="12" fill="#7acff5" stroke="#1f2d3d"/><text x="570.0" y="173.7" font-size="11" font-weight="normal" text-anchor="middle">Hiển thị lịch ca theo hub</text><path d="M570,192.0 L570,207.0 L245,207.0 L245,222.0" fill="none" stroke="#1f2d3d" marker-end="url(#arr)"/><rect x="145.0" y="222.0" width="200" height="44" rx="12" fill="#7acff5" stroke="#1f2d3d"/><text x="245.0" y="240.7" font-size="11" font-weight="normal" text-anchor="middle">Tạo ca: mã, tên, giờ bắt</text><text x="245.0" y="254.7" font-size="11" font-weight="normal" text-anchor="middle">đầu, kết thúc</text><path d="M245,266.0 L245,281.0 L570,281.0 L570,296.0" fill="none" stroke="#1f2d3d" marker-end="url(#arr)"/><rect x="470.0" y="296.0" width="200" height="44" rx="12" fill="#7acff5" stroke="#1f2d3d"/><text x="570.0" y="321.7" font-size="11" font-weight="normal" text-anchor="middle">Kiểm tra thời gian, mã ca</text><path d="M570,340.0 L570,373.0" fill="none" stroke="#1f2d3d" marker-end="url(#arr)"/><path d="M570,373.0 L587.0,390.0 L570,407.0 L553.0,390.0 Z" fill="#fff" stroke="#1f2d3d"/><text x="547.0" y="382.0" font-size="10" text-anchor="end" fill="#333">Hợp lệ?</text><rect x="680.0" y="370.0" width="150" height="40" rx="10" fill="#7acff5" stroke="#1f2d3d"/><text x="755.0" y="386.8" font-size="10" font-weight="normal" text-anchor="middle">Báo lỗi thời gian /</text><text x="755.0" y="399.8" font-size="10" font-weight="normal" text-anchor="middle">trùng mã</text><path d="M587.0,390.0 L680.0,390.0" fill="none" stroke="#1f2d3d" marker-end="url(#arr)"/><text x="592.0" y="385.0" font-size="10" text-anchor="start" fill="#333">[không]</text><path d="M830.0,390.0 L865,390.0 L865,244.0 L345.0,244.0" fill="none" stroke="#1f2d3d" marker-end="url(#arr)"/><path d="M570,407.0 L570,440.0" fill="none" stroke="#1f2d3d" marker-end="url(#arr)"/><text x="576" y="419.0" font-size="10" fill="#333">[có]</text><rect x="470.0" y="440.0" width="200" height="44" rx="12" fill="#7acff5" stroke="#1f2d3d"/><text x="570.0" y="465.7" font-size="11" font-weight="normal" text-anchor="middle">Lưu ca SCHEDULED</text><path d="M570,484.0 L570,499.0 L245,499.0 L245,514.0" fill="none" stroke="#1f2d3d" marker-end="url(#arr)"/><rect x="145.0" y="514.0" width="200" height="44" rx="12" fill="#7acff5" stroke="#1f2d3d"/><text x="245.0" y="539.7" font-size="11" font-weight="normal" text-anchor="middle">Chọn nhân sự để phân công</text><path d="M245,558.0 L245,573.0 L570,573.0 L570,588.0" fill="none" stroke="#1f2d3d" marker-end="url(#arr)"/><rect x="470.0" y="588.0" width="200" height="44" rx="12" fill="#7acff5" stroke="#1f2d3d"/><text x="570.0" y="606.7" font-size="11" font-weight="normal" text-anchor="middle">Kiểm tra nhân sự thuộc hub,</text><text x="570.0" y="620.7" font-size="11" font-weight="normal" text-anchor="middle">không trùng ca</text><path d="M570,632.0 L570,665.0" fill="none" stroke="#1f2d3d" marker-end="url(#arr)"/><path d="M570,665.0 L587.0,682.0 L570,699.0 L553.0,682.0 Z" fill="#fff" stroke="#1f2d3d"/><text x="547.0" y="674.0" font-size="10" text-anchor="end" fill="#333">Hợp lệ?</text><rect x="680.0" y="662.0" width="150" height="40" rx="10" fill="#7acff5" stroke="#1f2d3d"/><text x="755.0" y="678.8" font-size="10" font-weight="normal" text-anchor="middle">Cảnh báo trùng ca, bỏ</text><text x="755.0" y="691.8" font-size="10" font-weight="normal" text-anchor="middle">qua nhân sự</text><path d="M587.0,682.0 L680.0,682.0" fill="none" stroke="#1f2d3d" marker-end="url(#arr)"/><text x="592.0" y="677.0" font-size="10" text-anchor="start" fill="#333">[không]</text><path d="M830.0,682.0 L858,682.0 L858,536.0 L345.0,536.0" fill="none" stroke="#1f2d3d" marker-end="url(#arr)"/><path d="M570,699.0 L570,732.0" fill="none" stroke="#1f2d3d" marker-end="url(#arr)"/><text x="576" y="711.0" font-size="10" fill="#333">[có]</text><rect x="470.0" y="732.0" width="200" height="44" rx="12" fill="#7acff5" stroke="#1f2d3d"/><text x="570.0" y="750.7" font-size="11" font-weight="normal" text-anchor="middle">Tạo phân công ca, thông báo</text><text x="570.0" y="764.7" font-size="11" font-weight="normal" text-anchor="middle">nhân sự</text><path d="M570,776.0 L570,813" fill="none" stroke="#1f2d3d" marker-end="url(#arr)"/><circle cx="570" cy="824" r="11" fill="#fff" stroke="#1f2d3d" stroke-width="1.5"/><circle cx="570" cy="824" r="6" fill="#1f2d3d"/></svg>