<svg xmlns="http://www.w3.org/2000/svg" width="2124" height="1390" viewBox="0 0 2124 1390" font-family="DejaVu Sans, Arial, sans-serif" font-size="11">
<defs><marker id="open" markerWidth="12" markerHeight="12" refX="11" refY="6" orient="auto"><path d="M0,0 L11,6 L0,12" fill="none" stroke="#333"/></marker><marker id="tri" markerWidth="16" markerHeight="16" refX="15" refY="8" orient="auto"><path d="M0,0 L15,8 L0,16 Z" fill="#fff" stroke="#333"/></marker><marker id="dia" markerWidth="20" markerHeight="12" refX="1" refY="6" orient="auto"><path d="M1,6 L10,1 L19,6 L10,11 Z" fill="#333" stroke="#333"/></marker><marker id="odia" markerWidth="20" markerHeight="12" refX="1" refY="6" orient="auto"><path d="M1,6 L10,1 L19,6 L10,11 Z" fill="#fff" stroke="#333"/></marker></defs>
<rect width="2124" height="1390" fill="#fff"/>
<text x="20" y="22" font-size="14" font-weight="bold">DM-07 Workforce &amp; Operations</text>
<polyline points="264,82 364,82" fill="none" stroke="#333"/>
<text x="278" y="95" fill="#a33" font-size="9" text-anchor="start">account</text>
<text x="278" y="77" fill="#1a5" font-size="9" text-anchor="start">1</text>
<text x="350" y="77" fill="#a33" font-size="9" text-anchor="end">workforceMember</text>
<text x="350" y="95" fill="#1a5" font-size="9" text-anchor="end">0..1</text>
<polyline points="364,105 307,105 307,431 264,431" fill="none" stroke="#333" marker-start="url(#dia)"/>
<text x="350" y="100" fill="#a33" font-size="9" text-anchor="end">member</text>
<text x="350" y="118" fill="#1a5" font-size="9" text-anchor="end">1</text>
<text x="278" y="444" fill="#a33" font-size="9" text-anchor="start">memberships</text>
<text x="278" y="426" fill="#1a5" font-size="9" text-anchor="start">0..*</text>
<polyline points="1157,272 1157,327 189,327 189,382" fill="none" stroke="#333"/>
<text x="1148" y="290" fill="#a33" font-size="9" text-anchor="start">hub</text>
<text x="1166" y="290" fill="#1a5" font-size="9" text-anchor="start">1</text>
<text x="198" y="372" fill="#a33" font-size="9" text-anchor="start">memberships</text>
<text x="180" y="372" fill="#1a5" font-size="9" text-anchor="start">0..*</text>
<polyline points="595,82 655,82" fill="none" stroke="#333" marker-start="url(#dia)"/>
<text x="609" y="95" fill="#a33" font-size="9" text-anchor="start">member</text>
<text x="609" y="77" fill="#1a5" font-size="9" text-anchor="start">1</text>
<text x="641" y="77" fill="#a33" font-size="9" text-anchor="end">availability</text>
<text x="641" y="95" fill="#1a5" font-size="9" text-anchor="end">1</text>
<polyline points="1106,156 873,156 873,382" fill="none" stroke="#333"/>
<text x="1092" y="151" fill="#a33" font-size="9" text-anchor="end">hub</text>
<text x="1092" y="169" fill="#1a5" font-size="9" text-anchor="end">1</text>
<text x="882" y="372" fill="#a33" font-size="9" text-anchor="start">shifts</text>
<text x="864" y="372" fill="#1a5" font-size="9" text-anchor="start">0..*</text>
<polyline points="714,424 654,424" fill="none" stroke="#333" marker-start="url(#dia)"/>
<text x="700" y="419" fill="#a33" font-size="9" text-anchor="end">shift</text>
<text x="700" y="437" fill="#1a5" font-size="9" text-anchor="end">1</text>
<text x="668" y="437" fill="#a33" font-size="9" text-anchor="start">assignments</text>
<text x="668" y="419" fill="#1a5" font-size="9" text-anchor="start">0..*</text>
<polyline points="480,170 480,382" fill="none" stroke="#333"/>
<text x="470" y="188" fill="#a33" font-size="9" text-anchor="start">member</text>
<text x="488" y="188" fill="#1a5" font-size="9" text-anchor="start">1</text>
<text x="488" y="372" fill="#a33" font-size="9" text-anchor="start">shiftAssignments</text>
<text x="470" y="372" fill="#1a5" font-size="9" text-anchor="start">0..*</text>
<polyline points="1403,424 1343,424" fill="none" stroke="#333"/>
<text x="1389" y="419" fill="#a33" font-size="9" text-anchor="end">shipment</text>
<text x="1389" y="437" fill="#1a5" font-size="9" text-anchor="end">1</text>
<text x="1357" y="437" fill="#a33" font-size="9" text-anchor="start">assignments {ordered}</text>
<text x="1357" y="419" fill="#1a5" font-size="9" text-anchor="start">0..*</text>
<polyline points="1208,272 1208,382" fill="none" stroke="#333"/>
<text x="1200" y="290" fill="#a33" font-size="9" text-anchor="start">hub</text>
<text x="1218" y="290" fill="#1a5" font-size="9" text-anchor="start">1</text>
<text x="1218" y="372" fill="#a33" font-size="9" text-anchor="start">assignments</text>
<text x="1200" y="372" fill="#1a5" font-size="9" text-anchor="start">0..*</text>
<polyline points="556,170 556,290 1126,290 1126,382" fill="none" stroke="#333"/>
<text x="548" y="188" fill="#a33" font-size="9" text-anchor="start">assignee</text>
<text x="566" y="188" fill="#1a5" font-size="9" text-anchor="start">0..1</text>
<text x="1135" y="372" fill="#a33" font-size="9" text-anchor="start">assignments</text>
<text x="1117" y="372" fill="#1a5" font-size="9" text-anchor="start">0..*</text>
<polyline points="1289,382 1289,342 1916,342 1916,382" fill="none" stroke="#333"/>
<text x="1298" y="372" fill="#a33" font-size="9" text-anchor="start">currentAssignment</text>
<text x="1280" y="372" fill="#1a5" font-size="9" text-anchor="start">0..1</text>
<text x="1924" y="372" fill="#a33" font-size="9" text-anchor="start">parcels</text>
<text x="1906" y="372" fill="#1a5" font-size="9" text-anchor="start">0..*</text>
<rect x="40" y="40" width="224" height="164" fill="#e3f2fd" stroke="#333"/>
<line x1="40" y1="86" x2="264" y2="86" stroke="#333"/>
<text x="152.0" y="58" text-anchor="middle">«aggregate root»</text>
<text x="152.0" y="75" text-anchor="middle" font-weight="bold">UserAccount</text>
<text x="48" y="104">-id : UUID</text>
<text x="48" y="121">-email : String</text>
<text x="48" y="138">-emailVerified : Boolean</text>
<text x="48" y="155">-status : AccountStatus</text>
<text x="48" y="172">-profileStatus : ProfileStatus</text>
<text x="48" y="189">-createdAt : Instant</text>
<rect x="364" y="40" width="231" height="130" fill="#e3f2fd" stroke="#333"/>
<line x1="364" y1="86" x2="595" y2="86" stroke="#333"/>
<text x="479.5" y="58" text-anchor="middle">«aggregate root»</text>
<text x="479.5" y="75" text-anchor="middle" font-weight="bold">WorkforceMember</text>
<text x="372" y="104">-id : UUID</text>
<text x="372" y="121">-employeeCode : String</text>
<text x="372" y="138">-kind : WorkforceMemberKind</text>
<text x="372" y="155">-status : WorkforceMemberStatus</text>
<rect x="655" y="40" width="271" height="113" fill="#e3f2fd" stroke="#333"/>
<line x1="655" y1="86" x2="926" y2="86" stroke="#333"/>
<text x="790.5" y="58" text-anchor="middle">«entity»</text>
<text x="790.5" y="75" text-anchor="middle" font-weight="bold">WorkforceAvailability</text>
<text x="663" y="104">-status : WorkforceAvailabilityStatus</text>
<text x="663" y="121">-maxConcurrentAssignments : Int</text>
<text x="663" y="138">-updatedAt : Instant</text>
<rect x="1106" y="40" width="205" height="232" fill="#e3f2fd" stroke="#333"/>
<line x1="1106" y1="86" x2="1311" y2="86" stroke="#333"/>
<text x="1208.5" y="58" text-anchor="middle">«aggregate root»</text>
<text x="1208.5" y="75" text-anchor="middle" font-weight="bold">Hub</text>
<text x="1114" y="104">-id : UUID</text>
<text x="1114" y="121">-code : String</text>
<text x="1114" y="138">-name : String</text>
<text x="1114" y="155">-type : HubType</text>
<text x="1114" y="172">-status : HubStatus</text>
<text x="1114" y="189">-addressLine : String</text>
<text x="1114" y="206">-provinceCode : String</text>
<text x="1114" y="223">-wardCode : String</text>
<text x="1114" y="240">-publicVisible : Boolean</text>
<text x="1114" y="257">-publicName : String [0..1]</text>
<rect x="40" y="382" width="224" height="147" fill="#e3f2fd" stroke="#333"/>
<line x1="40" y1="428" x2="264" y2="428" stroke="#333"/>
<text x="152.0" y="400" text-anchor="middle">«entity»</text>
<text x="152.0" y="417" text-anchor="middle" font-weight="bold">HubMembership</text>
<text x="48" y="446">-id : UUID</text>
<text x="48" y="463">-isPrimary : Boolean</text>
<text x="48" y="480">-isActive : Boolean</text>
<text x="48" y="497">-assignedAt : Instant</text>
<text x="48" y="514">-unassignedAt : Instant [0..1]</text>
<rect x="364" y="382" width="290" height="232" fill="#e3f2fd" stroke="#333"/>
<line x1="364" y1="428" x2="654" y2="428" stroke="#333"/>
<text x="509.0" y="400" text-anchor="middle">«entity»</text>
<text x="509.0" y="417" text-anchor="middle" font-weight="bold">WorkforceShiftAssignment</text>
<text x="372" y="446">-id : UUID</text>
<text x="372" y="463">-status : WorkforceShiftAssignmentStatus</text>
<text x="372" y="480">-assignedByUserId : UUID</text>
<text x="372" y="497">-statusChangedByUserId : UUID</text>
<text x="372" y="514">-assignedAt : Instant</text>
<text x="372" y="531">-checkedInAt : Instant [0..1]</text>
<text x="372" y="548">-checkedOutAt : Instant [0..1]</text>
<text x="372" y="565">-markedAbsentAt : Instant [0..1]</text>
<text x="372" y="582">-cancelledAt : Instant [0..1]</text>
<text x="372" y="599">-note : String [0..1]</text>
<rect x="714" y="382" width="238" height="232" fill="#e3f2fd" stroke="#333"/>
<line x1="714" y1="428" x2="952" y2="428" stroke="#333"/>
<text x="833.0" y="400" text-anchor="middle">«aggregate root»</text>
<text x="833.0" y="417" text-anchor="middle" font-weight="bold">WorkShift</text>
<text x="722" y="446">-id : UUID</text>
<text x="722" y="463">-code : String</text>
<text x="722" y="480">-name : String</text>
<text x="722" y="497">-startsAt : Instant</text>
<text x="722" y="514">-endsAt : Instant</text>
<text x="722" y="531">-status : WorkShiftStatus</text>
<text x="722" y="548">-createdByUserId : UUID</text>
<text x="722" y="565">-cancelledByUserId : UUID [0..1]</text>
<text x="722" y="582">-cancelReason : String [0..1]</text>
<text x="722" y="599">-cancelledAt : Instant [0..1]</text>
<rect x="1072" y="382" width="271" height="351" fill="#e3f2fd" stroke="#333"/>
<line x1="1072" y1="428" x2="1343" y2="428" stroke="#333"/>
<text x="1207.5" y="400" text-anchor="middle">«aggregate root»</text>
<text x="1207.5" y="417" text-anchor="middle" font-weight="bold">OperationalAssignment</text>
<text x="1080" y="446">-id : UUID</text>
<text x="1080" y="463">-code : String</text>
<text x="1080" y="480">-sequence : Int</text>
<text x="1080" y="497">-routeLegId : UUID [0..1]</text>
<text x="1080" y="514">-type : OperationalAssignmentType</text>
<text x="1080" y="531">-requiredKind : WorkforceMemberKind</text>
<text x="1080" y="548">-status : OperationalAssignmentStatus</text>
<text x="1080" y="565">-priority : Int</text>
<text x="1080" y="582">-assignedByUserId : UUID [0..1]</text>
<text x="1080" y="599">-assignedAt : Instant [0..1]</text>
<text x="1080" y="616">-acceptedAt : Instant [0..1]</text>
<text x="1080" y="633">-startedAt : Instant [0..1]</text>
<text x="1080" y="650">-completedAt : Instant [0..1]</text>
<text x="1080" y="667">-cancelledAt : Instant [0..1]</text>
<text x="1080" y="684">-resolutionNote : String [0..1]</text>
<text x="1080" y="701">-lastActorUserId : UUID [0..1]</text>
<text x="1080" y="718">-createdAt : Instant</text>
<rect x="1403" y="382" width="304" height="657" fill="#e3f2fd" stroke="#333"/>
<line x1="1403" y1="428" x2="1707" y2="428" stroke="#333"/>
<text x="1555.0" y="400" text-anchor="middle">«aggregate root»</text>
<text x="1555.0" y="417" text-anchor="middle" font-weight="bold">Shipment</text>
<text x="1411" y="446">-id : UUID</text>
<text x="1411" y="463">-trackingCode : String</text>
<text x="1411" y="480">-merchantReference : String [0..1]</text>
<text x="1411" y="497">-createdByUserId : UUID</text>
<text x="1411" y="514">-sender : ShipmentAddressSnapshot</text>
<text x="1411" y="531">-recipient : ShipmentAddressSnapshot</text>
<text x="1411" y="548">-shippingFeePayer : ShippingFeePayer</text>
<text x="1411" y="565">-rateRevision : Int</text>
<text x="1411" y="582">-rateVersion : String</text>
<text x="1411" y="599">-currency : String</text>
<text x="1411" y="616">-serviceLevel : ShipmentServiceLevel</text>
<text x="1411" y="633">-pricingZone : ShipmentPricingZone</text>
<text x="1411" y="650">-fees : FeeBreakdown</text>
<text x="1411" y="667">-codAmount : Long</text>
<text x="1411" y="684">-declaredValue : Long</text>
<text x="1411" y="701">-estimate : DeliveryEstimate</text>
<text x="1411" y="718">-quoteExpiresAt : Instant</text>
<text x="1411" y="735">-origin : ShipmentEndpoint</text>
<text x="1411" y="752">-destination : ShipmentEndpoint</text>
<text x="1411" y="769">-routingStatus : ShipmentRoutingStatus</text>
<text x="1411" y="786">-routeRevision : Int</text>
<text x="1411" y="803">-reservedWeightKg : BigDecimal</text>
<text x="1411" y="820">-routeReadyAt : Instant [0..1]</text>
<text x="1411" y="837">-estimatedDeliveryAt : Instant [0..1]</text>
<text x="1411" y="854">-estimatedTransitMinutes : Int [0..1]</text>
<text x="1411" y="871">-routeDistanceKm : BigDecimal [0..1]</text>
<text x="1411" y="888">-status : ShipmentStatus</text>
<text x="1411" y="905">-lifecycleStatus : ShipmentLifecycleStatus</text>
<text x="1411" y="922">-hold : ShipmentHold [0..1]</text>
<text x="1411" y="939">-hasPendingWeightReview : Boolean</text>
<text x="1411" y="956">-note : String [0..1]</text>
<text x="1411" y="973">-cancellationReason : String [0..1]</text>
<text x="1411" y="990">-cancelledAt : Instant [0..1]</text>
<text x="1411" y="1007">-completedAt : Instant [0..1]</text>
<text x="1411" y="1024">-createdAt : Instant</text>
<rect x="1767" y="382" width="297" height="351" fill="#e3f2fd" stroke="#333"/>
<line x1="1767" y1="428" x2="2064" y2="428" stroke="#333"/>
<text x="1915.5" y="400" text-anchor="middle">«entity»</text>
<text x="1915.5" y="417" text-anchor="middle" font-weight="bold">Parcel</text>
<text x="1775" y="446">-id : UUID</text>
<text x="1775" y="463">-code : String</text>
<text x="1775" y="480">-sequence : Int</text>
<text x="1775" y="497">-description : String</text>
<text x="1775" y="514">-quantity : Int</text>
<text x="1775" y="531">-category : GoodsCategory</text>
<text x="1775" y="548">-isFragile : Boolean</text>
<text x="1775" y="565">-weight : Weight</text>
<text x="1775" y="582">-dimensions : Dimensions</text>
<text x="1775" y="599">-status : ParcelStatus</text>
<text x="1775" y="616">-stage : ParcelStage</text>
<text x="1775" y="633">-flowDirection : ParcelFlowDirection</text>
<text x="1775" y="650">-currentLocationType : ParcelLocationType</text>
<text x="1775" y="667">-currentHubName : String [0..1]</text>
<text x="1775" y="684">-currentRouteLegId : UUID [0..1]</text>
<text x="1775" y="701">-custodyType : ParcelCustodyType</text>
<text x="1775" y="718">-custodyReferenceId : UUID [0..1]</text>
<rect x="40" y="1149" width="160" height="113" fill="#fff6d5" stroke="#333"/>
<line x1="40" y1="1195" x2="200" y2="1195" stroke="#333"/>
<text x="120.0" y="1167" text-anchor="middle">«enumeration»</text>
<text x="120.0" y="1184" text-anchor="middle" font-weight="bold">WorkforceMemberKind</text>
<text x="48" y="1213">COURIER</text>
<text x="48" y="1230">LINE_HAUL_DRIVER</text>
<text x="48" y="1247">WAREHOUSE_OPERATOR</text>
<rect x="260" y="1149" width="173" height="113" fill="#fff6d5" stroke="#333"/>
<line x1="260" y1="1195" x2="433" y2="1195" stroke="#333"/>
<text x="346.5" y="1167" text-anchor="middle">«enumeration»</text>
<text x="346.5" y="1184" text-anchor="middle" font-weight="bold">WorkforceMemberStatus</text>
<text x="268" y="1213">ACTIVE</text>
<text x="268" y="1230">ON_LEAVE</text>
<text x="268" y="1247">INACTIVE</text>
<rect x="493" y="1149" width="213" height="113" fill="#fff6d5" stroke="#333"/>
<line x1="493" y1="1195" x2="706" y2="1195" stroke="#333"/>
<text x="599.5" y="1167" text-anchor="middle">«enumeration»</text>
<text x="599.5" y="1184" text-anchor="middle" font-weight="bold">WorkforceAvailabilityStatus</text>
<text x="501" y="1213">AVAILABLE</text>
<text x="501" y="1230">BUSY</text>
<text x="501" y="1247">OFFLINE</text>
<rect x="766" y="1149" width="150" height="130" fill="#fff6d5" stroke="#333"/>
<line x1="766" y1="1195" x2="916" y2="1195" stroke="#333"/>
<text x="841.0" y="1167" text-anchor="middle">«enumeration»</text>
<text x="841.0" y="1184" text-anchor="middle" font-weight="bold">WorkShiftStatus</text>
<text x="774" y="1213">SCHEDULED</text>
<text x="774" y="1230">IN_PROGRESS</text>
<text x="774" y="1247">COMPLETED</text>
<text x="774" y="1264">CANCELLED</text>
<rect x="976" y="1149" width="232" height="147" fill="#fff6d5" stroke="#333"/>
<line x1="976" y1="1195" x2="1208" y2="1195" stroke="#333"/>
<text x="1092.0" y="1167" text-anchor="middle">«enumeration»</text>
<text x="1092.0" y="1184" text-anchor="middle" font-weight="bold">WorkforceShiftAssignmentStatus</text>
<text x="984" y="1213">ASSIGNED</text>
<text x="984" y="1230">CHECKED_IN</text>
<text x="984" y="1247">CHECKED_OUT</text>
<text x="984" y="1264">ABSENT</text>
<text x="984" y="1281">CANCELLED</text>
<rect x="1268" y="1149" width="199" height="181" fill="#fff6d5" stroke="#333"/>
<line x1="1268" y1="1195" x2="1467" y2="1195" stroke="#333"/>
<text x="1367.5" y="1167" text-anchor="middle">«enumeration»</text>
<text x="1367.5" y="1184" text-anchor="middle" font-weight="bold">OperationalAssignmentType</text>
<text x="1276" y="1213">PICKUP</text>
<text x="1276" y="1230">HUB_INBOUND</text>
<text x="1276" y="1247">SORTING</text>
<text x="1276" y="1264">LINE_HAUL</text>
<text x="1276" y="1281">HUB_OUTBOUND</text>
<text x="1276" y="1298">LAST_MILE_DELIVERY</text>
<text x="1276" y="1315">RETURN_TO_SENDER</text>
<rect x="1527" y="1149" width="213" height="181" fill="#fff6d5" stroke="#333"/>
<line x1="1527" y1="1195" x2="1740" y2="1195" stroke="#333"/>
<text x="1633.5" y="1167" text-anchor="middle">«enumeration»</text>
<text x="1633.5" y="1184" text-anchor="middle" font-weight="bold">OperationalAssignmentStatus</text>
<text x="1535" y="1213">PENDING</text>
<text x="1535" y="1230">ASSIGNED</text>
<text x="1535" y="1247">ACCEPTED</text>
<text x="1535" y="1264">IN_PROGRESS</text>
<text x="1535" y="1281">COMPLETED</text>
<text x="1535" y="1298">FAILED</text>
<text x="1535" y="1315">CANCELLED</text>
</svg>